<svg width="400" height="260" viewBox="0 0 400 260" fill="none" xmlns="http://www.w3.org/2000/svg">
<rect width="400" height="260" fill="white"/>
<g filter="url(#filter0_d_2034_573)">
<path d="M290.933 180.7H292.777L291.901 179.077C278.737 154.695 243.122 91.787 237.246 81.8726C237.218 81.8245 237.19 81.7764 237.162 81.7289C237.045 81.5316 236.934 81.3433 236.84 81.1998C236.779 81.108 236.702 80.9967 236.609 80.893C236.526 80.7996 236.361 80.6324 236.11 80.5249C235.804 80.3938 235.455 80.3885 235.135 80.5277C234.873 80.642 234.708 80.8213 234.626 80.9194C234.468 81.1085 234.331 81.3608 234.234 81.5407L234.233 81.5433L234.233 81.5433C227.655 93.7049 222.855 102.563 219.7 108.38C218.122 111.289 216.955 113.438 216.183 114.859C215.797 115.57 215.51 116.099 215.319 116.45L215.105 116.844L215.051 116.942L215.038 116.966L215.035 116.972L215.034 116.974L215.034 116.974C215.034 116.974 215.034 116.974 216 117.5L215.034 116.974L214.737 117.519L215.05 118.055L251.297 180.154L251.615 180.7H252.247H290.933Z" stroke="#9B9999" stroke-width="2.2"/>
<path d="M250.77 108.218C250.396 108.543 249.999 108.892 249.629 109.28L245.116 106.699L243.963 106.04V107.367V114.705L241.464 112.991L240.91 112.611L240.459 113.108L239.522 114.14L235.561 102.715L235.052 101.246L234.192 102.541L232.947 104.416L231.09 101.689L230.044 100.152L229.697 101.979L230.454 102.122L229.697 101.979L229.697 101.979L229.697 101.98L229.696 101.986L229.692 102.007L229.676 102.092C229.661 102.166 229.64 102.276 229.613 102.414C229.559 102.692 229.481 103.087 229.386 103.559C229.195 104.502 228.936 105.746 228.66 106.955C228.441 107.911 228.216 108.831 228.008 109.559C227.837 109.149 227.656 108.702 227.484 108.269C227.275 107.746 227.084 107.255 226.945 106.896C226.876 106.716 226.82 106.569 226.781 106.467L226.752 106.392L226.43 103.966L226.218 102.365L225.108 103.538L222.77 106.007L222.331 105.362L222.273 105.277L222.195 105.21L221.507 104.62L234.604 80.4776C234.604 80.4775 234.605 80.4773 234.605 80.4772C234.919 79.8994 235.337 79.7104 235.66 79.7104C235.984 79.7104 236.404 79.9 236.724 80.4784C239.688 85.9687 242.866 91.5101 246.056 97.0722C247.998 100.458 249.945 103.852 251.85 107.247C251.553 107.538 251.228 107.82 250.881 108.122C250.845 108.154 250.808 108.186 250.77 108.218Z" fill="white" stroke="#9B9999" stroke-width="1.54"/>
<mask id="path-3-inside-1_2034_573" fill="white">
<path d="M176.969 67.3039C154.593 105.453 132.208 143.593 109.801 181.8L253.534 181.8C231.128 143.594 208.865 105.453 186.477 67.3039C184.41 63.8297 179.02 63.8297 176.944 67.3039"/>
</mask>
<path d="M109.801 181.8L107.903 180.687L105.96 184L109.801 184L109.801 181.8ZM253.534 181.8L253.534 184L257.374 184L255.432 180.687L253.534 181.8ZM186.477 67.3039L188.375 66.1904L188.368 66.179L186.477 67.3039ZM175.072 66.1908C152.697 104.338 130.31 142.482 107.903 180.687L111.698 182.913C134.107 144.705 156.49 106.569 178.867 68.4169L175.072 66.1908ZM109.801 184L253.534 184L253.534 179.6L109.801 179.6L109.801 184ZM255.432 180.687C233.033 142.493 210.758 104.333 188.375 66.1904L184.58 68.4173C206.971 106.574 229.223 144.694 251.636 182.913L255.432 180.687ZM188.368 66.179C185.446 61.2682 177.984 61.2757 175.056 66.1753L178.833 68.4325C180.057 66.3837 183.374 66.3912 184.587 68.4288L188.368 66.179Z" fill="#9B9999" mask="url(#path-3-inside-1_2034_573)"/>
<path d="M195.757 100.046L196.604 100.395L195.757 100.046L195.757 100.046L195.756 100.046L195.755 100.049L195.751 100.06L195.734 100.101L195.667 100.263C195.609 100.402 195.525 100.604 195.421 100.85C195.214 101.344 194.93 102.016 194.62 102.734C194.272 103.54 193.9 104.383 193.572 105.091C193.21 104.025 192.799 102.509 192.405 100.922C191.993 99.2631 191.605 97.5562 191.321 96.2622C191.179 95.6156 191.063 95.0731 190.982 94.6924C190.942 94.5021 190.91 94.3523 190.889 94.2503L190.865 94.134L190.859 94.1043L190.857 94.097L190.857 94.0952L190.857 94.0948L189.959 94.2797L190.857 94.0947L190.443 92.0875L189.222 93.7338L186.589 97.2867L185.651 94.0264L184.939 91.5491L183.927 93.9199L176.569 111.161L174.834 109.403L173.915 108.473L173.354 109.654L171.813 112.894L166.948 99.0162L166.406 97.4721L165.372 98.7401L161.071 104.014C160.148 102.983 159.205 101.969 158.244 100.973C163.479 92.0796 168.714 83.1799 173.948 74.2832C175.853 71.0448 177.757 67.8068 179.662 64.5696C180.597 63.0265 183.047 63.0335 183.967 64.568C187.299 70.2294 190.54 75.8238 193.784 81.4225L193.883 81.5937C196.982 86.9428 200.083 92.2966 203.266 97.7125L202.357 98.7004L202.322 98.7374L202.293 98.7779L201.553 99.7829L199.25 96.8952L198.463 95.9081L197.768 96.9625L195.839 99.8908L195.79 99.9643L195.757 100.046Z" fill="white" stroke="#9B9999" stroke-width="1.83333"/>
<path d="M219.191 42.1063C240.291 42.1063 257.639 58.5546 257.639 79.9117C257.639 87.4797 255.499 94.5383 251.799 100.502C251.498 99.9349 251.13 99.2415 250.712 98.4536C249.531 96.2302 247.95 93.254 246.344 90.2432C244.739 87.2328 243.11 84.1865 241.836 81.8235C241.199 80.6423 240.649 79.6298 240.235 78.877C239.837 78.1554 239.53 77.6079 239.401 77.4173C238.957 76.7599 238.415 76.2124 237.727 75.8606C237.03 75.5043 236.267 75.3914 235.458 75.472C233.934 75.6237 233.053 76.5566 232.407 77.3258C232.33 77.4172 232.253 77.5393 232.211 77.6057C232.152 77.6989 232.079 77.8188 231.995 77.9601C231.825 78.2439 231.597 78.6337 231.321 79.1115C230.769 80.0682 230.014 81.3921 229.129 82.9569C227.356 86.0873 225.052 90.1912 222.767 94.2708C220.482 98.3506 218.217 102.407 216.523 105.444C215.766 106.8 215.124 107.953 214.644 108.813L186.594 60.778C192.978 49.143 204.755 42.1063 219.191 42.1063Z" stroke="#9B9999" stroke-width="2.2"/>
</g>
<path d="M121.197 202.003V214.8H119.492L113.05 204.93V214.8H111.354V202.003H113.05L119.519 211.899V202.003H121.197ZM134.056 207.997V208.806C134.056 209.767 133.936 210.628 133.695 211.39C133.455 212.151 133.109 212.799 132.658 213.332C132.207 213.865 131.665 214.272 131.032 214.554C130.405 214.835 129.702 214.976 128.923 214.976C128.167 214.976 127.473 214.835 126.84 214.554C126.213 214.272 125.668 213.865 125.205 213.332C124.748 212.799 124.394 212.151 124.142 211.39C123.89 210.628 123.764 209.767 123.764 208.806V207.997C123.764 207.036 123.887 206.178 124.133 205.422C124.385 204.66 124.739 204.013 125.196 203.479C125.653 202.94 126.195 202.53 126.822 202.249C127.455 201.968 128.149 201.827 128.905 201.827C129.685 201.827 130.388 201.968 131.015 202.249C131.647 202.53 132.189 202.94 132.641 203.479C133.098 204.013 133.446 204.66 133.687 205.422C133.933 206.178 134.056 207.036 134.056 207.997ZM132.377 208.806V207.979C132.377 207.218 132.298 206.544 132.14 205.958C131.987 205.372 131.762 204.88 131.463 204.481C131.164 204.083 130.798 203.781 130.364 203.576C129.937 203.371 129.45 203.269 128.905 203.269C128.378 203.269 127.9 203.371 127.473 203.576C127.051 203.781 126.688 204.083 126.383 204.481C126.084 204.88 125.853 205.372 125.688 205.958C125.524 206.544 125.442 207.218 125.442 207.979V208.806C125.442 209.573 125.524 210.253 125.688 210.845C125.853 211.431 126.087 211.926 126.392 212.33C126.702 212.729 127.068 213.03 127.49 213.235C127.918 213.44 128.396 213.543 128.923 213.543C129.474 213.543 129.963 213.44 130.391 213.235C130.818 213.03 131.179 212.729 131.472 212.33C131.771 211.926 131.996 211.431 132.148 210.845C132.301 210.253 132.377 209.573 132.377 208.806ZM142.88 202.003V214.8H141.184V202.003H142.88ZM146.501 202.003H148.145L152.337 212.436L156.521 202.003H158.173L152.97 214.8H151.687L146.501 202.003ZM145.965 202.003H147.415L147.652 209.808V214.8H145.965V202.003ZM157.25 202.003H158.7V214.8H157.013V209.808L157.25 202.003ZM166.575 203.137L162.339 214.8H160.607L165.485 202.003H166.602L166.575 203.137ZM170.126 214.8L165.881 203.137L165.854 202.003H166.971L171.866 214.8H170.126ZM169.906 210.062V211.451H162.717V210.062H169.906ZM182.932 208.428V213.112C182.773 213.347 182.521 213.61 182.176 213.903C181.83 214.19 181.353 214.442 180.743 214.659C180.14 214.87 179.36 214.976 178.405 214.976C177.626 214.976 176.908 214.841 176.252 214.571C175.602 214.296 175.036 213.897 174.556 213.376C174.081 212.849 173.712 212.21 173.448 211.46C173.19 210.704 173.062 209.849 173.062 208.894V207.9C173.062 206.945 173.173 206.093 173.396 205.343C173.624 204.593 173.958 203.957 174.397 203.436C174.837 202.908 175.376 202.51 176.015 202.24C176.653 201.965 177.386 201.827 178.212 201.827C179.19 201.827 180.008 201.997 180.664 202.337C181.326 202.671 181.842 203.134 182.211 203.726C182.586 204.317 182.826 204.991 182.932 205.747H181.235C181.159 205.284 181.007 204.862 180.778 204.481C180.556 204.101 180.236 203.796 179.82 203.567C179.404 203.333 178.868 203.216 178.212 203.216C177.62 203.216 177.107 203.324 176.674 203.541C176.24 203.758 175.883 204.068 175.602 204.473C175.32 204.877 175.109 205.366 174.969 205.94C174.834 206.515 174.767 207.162 174.767 207.883V208.894C174.767 209.632 174.852 210.291 175.021 210.871C175.197 211.451 175.446 211.946 175.769 212.356C176.091 212.761 176.475 213.068 176.92 213.279C177.371 213.49 177.869 213.596 178.414 213.596C179.018 213.596 179.507 213.546 179.882 213.446C180.257 213.341 180.55 213.218 180.761 213.077C180.972 212.931 181.133 212.793 181.244 212.664V209.799H178.282V208.428H182.932ZM193.874 213.42V214.8H187.098V213.42H193.874ZM187.44 202.003V214.8H185.744V202.003H187.44ZM192.978 207.505V208.885H187.098V207.505H192.978ZM193.786 202.003V203.392H187.098V202.003H193.786ZM205.177 203.137L200.94 214.8H199.209L204.087 202.003H205.203L205.177 203.137ZM208.728 214.8L204.482 203.137L204.456 202.003H205.572L210.468 214.8H208.728ZM208.508 210.062V211.451H201.318V210.062H208.508ZM215.539 212.857L219.31 202.003H221.146L216.409 214.8H215.1L215.539 212.857ZM212.015 202.003L215.75 212.857L216.216 214.8H214.906L210.178 202.003H212.015ZM226.938 203.137L222.702 214.8H220.971L225.849 202.003H226.965L226.938 203.137ZM230.489 214.8L226.244 203.137L226.218 202.003H227.334L232.229 214.8H230.489ZM230.27 210.062V211.451H223.08V210.062H230.27ZM235.763 202.003V214.8H234.066V202.003H235.763ZM246.608 213.42V214.8H240.21V213.42H246.608ZM240.544 202.003V214.8H238.848V202.003H240.544ZM253.464 203.137L249.228 214.8H247.496L252.374 202.003H253.49L253.464 203.137ZM257.015 214.8L252.77 203.137L252.743 202.003H253.859L258.755 214.8H257.015ZM256.795 210.062V211.451H249.605V210.062H256.795ZM265.03 208.814H261.787L261.77 207.452H264.714C265.2 207.452 265.625 207.37 265.988 207.206C266.352 207.042 266.633 206.808 266.832 206.503C267.037 206.192 267.14 205.823 267.14 205.396C267.14 204.927 267.049 204.546 266.867 204.253C266.691 203.954 266.419 203.737 266.05 203.603C265.687 203.462 265.224 203.392 264.661 203.392H262.165V214.8H260.469V202.003H264.661C265.317 202.003 265.903 202.07 266.419 202.205C266.935 202.334 267.371 202.539 267.729 202.82C268.092 203.096 268.367 203.447 268.555 203.875C268.742 204.303 268.836 204.815 268.836 205.413C268.836 205.94 268.701 206.418 268.432 206.846C268.162 207.268 267.787 207.613 267.307 207.883C266.832 208.152 266.275 208.325 265.637 208.401L265.03 208.814ZM264.951 214.8H261.119L262.077 213.42H264.951C265.49 213.42 265.947 213.326 266.322 213.139C266.703 212.951 266.993 212.688 267.192 212.348C267.392 212.002 267.491 211.595 267.491 211.126C267.491 210.651 267.406 210.241 267.236 209.896C267.066 209.55 266.8 209.283 266.437 209.096C266.073 208.908 265.604 208.814 265.03 208.814H262.613L262.631 207.452H265.936L266.296 207.944C266.911 207.997 267.433 208.173 267.86 208.472C268.288 208.765 268.613 209.14 268.836 209.597C269.064 210.054 269.179 210.558 269.179 211.108C269.179 211.905 269.003 212.579 268.651 213.13C268.306 213.675 267.816 214.091 267.184 214.378C266.551 214.659 265.807 214.8 264.951 214.8ZM279.444 213.42V214.8H273.046V213.42H279.444ZM273.38 202.003V214.8H271.684V202.003H273.38ZM289.517 213.42V214.8H282.74V213.42H289.517ZM283.083 202.003V214.8H281.387V202.003H283.083ZM288.62 207.505V208.885H282.74V207.505H288.62ZM289.429 202.003V203.392H282.74V202.003H289.429Z" fill="#9B9999"/>
<defs>
<filter id="filter0_d_2034_573" x="65.8" y="40.2667" width="269.867" height="146.667" filterUnits="userSpaceOnUse" color-interpolation-filters="sRGB">
<feFlood flood-opacity="0" result="BackgroundImageFix"/>
<feColorMatrix in="SourceAlpha" type="matrix" values="0 0 0 0 0 0 0 0 0 0 0 0 0 0 0 0 0 0 127 0" result="hardAlpha"/>
<feOffset dx="0.733333" dy="2.2"/>
<feGaussianBlur stdDeviation="1.46667"/>
<feComposite in2="hardAlpha" operator="out"/>
<feColorMatrix type="matrix" values="0 0 0 0 0 0 0 0 0 0 0 0 0 0 0 0 0 0 0.15 0"/>
<feBlend mode="normal" in2="BackgroundImageFix" result="effect1_dropShadow_2034_573"/>
<feBlend mode="normal" in="SourceGraphic" in2="effect1_dropShadow_2034_573" result="shape"/>
</filter>
</defs>
</svg>
