<svg width="32" height="26" viewBox="0 0 32 26" fill="none" xmlns="http://www.w3.org/2000/svg">
<g clip-path="url(#clip0_22007_550)">
<path d="M27.1039 1.2791L26.7861 1.57245L27.1038 1.2791C26.9461 1.1082 26.7241 1.011 26.4915 1.011H3.99998C3.16611 1.011 2.37414 1.37018 1.79595 1.99655C1.21883 2.62176 0.89998 3.46281 0.89998 4.33323V17.3332C0.89998 18.2036 1.21883 19.0447 1.79595 19.6699L2.11436 19.376L1.79595 19.6699C2.37414 20.2963 3.16611 20.6554 3.99998 20.6554H4.91805C4.9183 20.6564 4.91849 20.6574 4.91858 20.6586C5.01207 21.7528 5.45557 22.7884 6.18647 23.5802C7.01471 24.4774 8.14582 24.9888 9.33331 24.9888C10.5208 24.9888 11.6519 24.4774 12.4802 23.5802C13.2111 22.7884 13.6546 21.7528 13.748 20.6586C13.7481 20.6574 13.7483 20.6564 13.7486 20.6554H19.5847C19.585 20.6564 19.5852 20.6574 19.5852 20.6586C19.6787 21.7528 20.1222 22.7884 20.8531 23.5802C21.6814 24.4774 22.8125 24.9888 24 24.9888C25.1875 24.9888 26.3186 24.4774 27.1468 23.5802C27.8777 22.7884 28.3212 21.7528 28.4147 20.6586C28.4148 20.6574 28.415 20.6564 28.4152 20.6554H30.2666C30.7269 20.6554 31.1 20.2824 31.1 19.8221V13.1248C31.1 12.9553 31.0483 12.7899 30.9518 12.6505L27.4937 7.65545H28.9333C29.3936 7.65545 29.7666 7.28235 29.7666 6.82211V4.48962C29.7666 4.28013 29.6877 4.07832 29.5457 3.92439L27.1039 1.2791ZM27.4575 7.60314C27.4575 7.60316 27.4575 7.60318 27.4575 7.6032L27.4575 7.60314Z" fill="#E44848" stroke="#101828" stroke-width="0.866667"/>
<path d="M22.7199 22.2975C23.0988 22.5718 23.5443 22.7182 24 22.7182C24.6061 22.7014 25.1832 22.433 25.6119 21.9685C26.0407 21.504 26.2884 20.8789 26.304 20.2222C26.304 19.7285 26.1688 19.246 25.9157 18.8355C25.6625 18.425 25.3027 18.1051 24.8817 17.9162C24.4607 17.7273 23.9974 17.6778 23.5505 17.7742C23.1035 17.8705 22.693 18.1082 22.3708 18.4573C22.0486 18.8063 21.8291 19.2511 21.7402 19.7353C21.6513 20.2194 21.697 20.7213 21.8713 21.1774C22.0457 21.6335 22.341 22.0233 22.7199 22.2975Z" fill="white"/>
<path d="M7.70412 21.9871C8.13621 22.4552 8.72224 22.7182 9.3333 22.7182C9.94436 22.7182 10.5304 22.4552 10.9625 21.9871C11.3946 21.519 11.6373 20.8842 11.6373 20.2222C11.6373 19.5602 11.3946 18.9253 10.9625 18.4573C10.5304 17.9892 9.94436 17.7262 9.3333 17.7262C8.72224 17.7262 8.13621 17.9892 7.70412 18.4573C7.27204 18.9253 7.0293 19.5602 7.0293 20.2222C7.0293 20.8842 7.27204 21.519 7.70412 21.9871Z" fill="white"/>
<path d="M11.0239 8.70265C11.3155 8.70265 11.5519 8.93904 11.5519 9.23065V13.3942C11.5519 13.6858 11.3155 13.9222 11.0239 13.9222H3.92891C3.6373 13.9222 3.40091 13.6858 3.40091 13.3942V9.23065C3.40091 8.93904 3.6373 8.70265 3.92891 8.70265H11.0239ZM19.1309 16.7546C19.1309 17.0463 18.8945 17.2826 18.6029 17.2826H14.5109C14.2193 17.2826 13.9829 17.0463 13.9829 16.7546V7.78874C13.9829 7.49714 14.2193 7.26074 14.5109 7.26074H18.6029C18.8945 7.26074 19.1309 7.49714 19.1309 7.78874V16.7546ZM21.6609 13.9222C21.3693 13.9222 21.1329 13.6858 21.1329 13.3942V9.49283C21.1329 9.20122 21.3693 8.96483 21.6609 8.96483H25.1384C25.316 8.96483 25.4817 9.05413 25.5794 9.20247L28.148 13.1038C28.3791 13.4549 28.1273 13.9222 27.707 13.9222H21.6609Z" fill="white"/>
</g>
<defs>
<clipPath id="clip0_22007_550">
<rect width="32" height="26" fill="white"/>
</clipPath>
</defs>
</svg>
