<!-- Generated by IcoMoon.io -->
<svg version="1.1" xmlns="http://www.w3.org/2000/svg" width="39" height="32" viewBox="0 0 39 32">
<path fill="#e44848" stroke="#101828" stroke-width="1.0667" stroke-miterlimit="4" stroke-linecap="butt" stroke-linejoin="miter" d="M33.359 1.574h-0c-0.194-0.21-0.467-0.33-0.754-0.33h-27.682c-1.026 0-2.001 0.442-2.713 1.213-0.71 0.769-1.103 1.805-1.103 2.876v16c0 1.071 0.392 2.106 1.103 2.876v0c0.712 0.771 1.686 1.213 2.713 1.213h1.13c0 0.001 0.001 0.002 0.001 0.004 0.115 1.347 0.661 2.621 1.56 3.596 1.019 1.104 2.412 1.734 3.873 1.734s2.854-0.629 3.873-1.734c0.9-0.975 1.445-2.249 1.56-3.596 0-0.001 0-0.003 0.001-0.004h7.183c0 0.001 0.001 0.002 0.001 0.004 0.115 1.347 0.661 2.621 1.561 3.596 1.019 1.104 2.412 1.734 3.873 1.734s2.854-0.629 3.873-1.734c0.9-0.975 1.445-2.249 1.56-3.596 0-0.001 0-0.003 0.001-0.004h2.279c0.567 0 1.026-0.459 1.026-1.026v-8.243c0-0.209-0.064-0.412-0.182-0.584l-4.256-6.148h1.772c0.567 0 1.026-0.459 1.026-1.026v-2.871c0-0.258-0.097-0.506-0.272-0.696l-3.005-3.256zM33.794 9.358c0 0 0 0 0 0v-0z"></path>
<path fill="#fff" d="M27.963 27.443c0.466 0.338 1.015 0.518 1.575 0.518 0.746-0.021 1.456-0.351 1.984-0.923s0.833-1.341 0.852-2.149c0-0.608-0.166-1.201-0.478-1.707s-0.754-0.899-1.273-1.131-1.088-0.293-1.638-0.175c-0.55 0.119-1.055 0.411-1.452 0.841s-0.667 0.977-0.776 1.573c-0.109 0.596-0.053 1.214 0.161 1.775s0.578 1.041 1.044 1.379z"></path>
<path fill="#fff" d="M9.482 27.061c0.532 0.576 1.253 0.9 2.005 0.9s1.473-0.324 2.005-0.9c0.532-0.576 0.831-1.357 0.831-2.172s-0.299-1.596-0.831-2.172c-0.532-0.576-1.253-0.9-2.005-0.9s-1.473 0.324-2.005 0.9c-0.532 0.576-0.831 1.357-0.831 2.172s0.299 1.596 0.831 2.172z"></path>
<path fill="#fff" d="M13.568 10.711c0.359 0 0.65 0.291 0.65 0.65v5.124c0 0.359-0.291 0.65-0.65 0.65h-8.732c-0.359 0-0.65-0.291-0.65-0.65v-5.124c0-0.359 0.291-0.65 0.65-0.65h8.732zM23.546 20.621c0 0.359-0.291 0.65-0.65 0.65h-5.036c-0.359 0-0.65-0.291-0.65-0.65v-11.035c0-0.359 0.291-0.65 0.65-0.65h5.036c0.359 0 0.65 0.291 0.65 0.65v11.035zM26.66 17.135c-0.359 0-0.65-0.291-0.65-0.65v-4.802c0-0.359 0.291-0.65 0.65-0.65h4.28c0.219 0 0.423 0.11 0.543 0.292l3.161 4.802c0.284 0.432-0.025 1.007-0.543 1.007h-7.441z"></path>
</svg>
